<svg xmlns="http://www.w3.org/2000/svg" width="30" height="26" viewBox="0 0 30 26">
    <g fill="none" fill-rule="evenodd">
        <path fill="#013461" d="M26.181 12.995c0 7.176-5.86 12.993-13.091 12.993C5.86 25.988 0 20.171 0 12.995 0 5.816 5.86 0 13.09 0c7.231 0 13.091 5.816 13.091 12.995"/>
        <path fill="#FFF" d="M18.27 16.313a6.932 6.932 0 0 1-2.354.416c-1.154 0-2.105-.292-2.852-1-.657-.629-1.064-1.64-1.064-2.82C12 10.652 13.573 9 16.131 9c.883 0 1.584.191 1.912.348l-.248.796c-.408-.19-.917-.324-1.687-.324-1.855 0-3.067 1.146-3.067 3.045 0 1.92 1.155 3.055 2.943 3.055.645 0 1.086-.09 1.312-.203V13.46h-1.538v-.786h2.512v3.639M20.26 15.505a3.38 3.38 0 0 0 1.756.493c1.007 0 1.595-.517 1.595-1.29 0-.7-.408-1.113-1.437-1.495-1.245-.45-2.015-1.1-2.015-2.157 0-1.18.985-2.056 2.468-2.056.769 0 1.346.18 1.673.368l-.27.8c-.237-.146-.747-.36-1.438-.36-1.04 0-1.436.619-1.436 1.136 0 .707.464 1.054 1.516 1.46 1.29.506 1.935 1.112 1.935 2.224 0 1.168-.86 2.19-2.66 2.19-.736 0-1.538-.224-1.947-.495l.26-.818"/>
        <path fill="#013461" d="M28.494 9.92h-.023l-1.28.686L27 9.852 28.606 9h.85v7.3h-.962V9.92"/>
        <path fill="#FFF" d="M1.967 12.485C1.967 6.717 6.679 2.04 12.49 2.04h.006c-.306-.025-.612-.04-.923-.04C5.733 2 1 6.699 1 12.495 1 18.29 5.733 22.99 11.573 22.99c.39 0 .776-.022 1.157-.06l-.24.001c-5.811 0-10.523-4.677-10.523-10.446"/>
        <path fill="#FFF" d="M4.864 12.36c0-5.15 4.205-9.323 9.393-9.323h.005A9.519 9.519 0 0 0 13.44 3C8.227 3 4 7.195 4 12.37c0 5.174 4.227 9.368 9.439 9.368.35 0 .693-.02 1.031-.056-.07.002-.141.002-.213.002-5.188 0-9.393-4.175-9.393-9.323"/>
        <path fill="#FFF" d="M6.724 12.866c0-4.33 3.536-7.837 7.896-7.837h.005c-.229-.02-.46-.029-.693-.029C9.552 5 6 8.525 6 12.874s3.551 7.874 7.932 7.874c.294 0 .583-.016.867-.048a3.681 3.681 0 0 1-.179.005c-4.36 0-7.896-3.512-7.896-7.84"/>
        <path fill="#FFF" d="M10.595 13.459c0-3.554 2.903-6.433 6.483-6.433A6.038 6.038 0 0 0 16.513 7C12.914 7 10 9.893 10 13.464c0 3.57 2.914 6.463 6.512 6.463.24 0 .479-.012.71-.038l-.144.002c-3.58 0-6.483-2.88-6.483-6.432"/>
    </g>
</svg>
